<svg id="visual" viewBox="0 0 900 600" width="900" height="600" xmlns="http://www.w3.org/2000/svg" xmlns:xlink="http://www.w3.org/1999/xlink" version="1.1"><g stroke-width="1" stroke-linejoin="bevel"><path d="M421 318.9L390 318.9L428 406.6Z" fill="#27334d" stroke="#27334d"></path><path d="M390 318.9L387 411.6L428 406.6Z" fill="#44526f" stroke="#44526f"></path><path d="M390 318.9L302 319.9L387 411.6Z" fill="#293651" stroke="#293651"></path><path d="M421 318.9L354 241.1L390 318.9Z" fill="#44526f" stroke="#44526f"></path><path d="M390 318.9L354 241.1L302 319.9Z" fill="#1f283b" stroke="#1f283b"></path><path d="M507 233.1L456 236.1L421 318.9Z" fill="#253048" stroke="#253048"></path><path d="M421 318.9L456 236.1L354 241.1Z" fill="#27334d" stroke="#27334d"></path><path d="M280 435.6L368 502.3L387 411.6Z" fill="#1f283b" stroke="#1f283b"></path><path d="M387 411.6L368 502.3L428 406.6Z" fill="#212b3f" stroke="#212b3f"></path><path d="M302 319.9L280 435.6L387 411.6Z" fill="#232e44" stroke="#232e44"></path><path d="M549 417.6L553 340.9L428 406.6Z" fill="#1f283b" stroke="#1f283b"></path><path d="M428 406.6L553 340.9L421 318.9Z" fill="#303d58" stroke="#303d58"></path><path d="M465 514.3L549 417.6L428 406.6Z" fill="#303d58" stroke="#303d58"></path><path d="M368 502.3L465 514.3L428 406.6Z" fill="#303d58" stroke="#303d58"></path><path d="M553 340.9L507 233.1L421 318.9Z" fill="#27334d" stroke="#27334d"></path><path d="M336 154.4L245 241.1L354 241.1Z" fill="#364460" stroke="#364460"></path><path d="M280 435.6L290 509.3L368 502.3Z" fill="#212b3f" stroke="#212b3f"></path><path d="M368 502.3L475 600L465 514.3Z" fill="#44526f" stroke="#44526f"></path><path d="M437 160.4L354 241.1L456 236.1Z" fill="#1f283b" stroke="#1f283b"></path><path d="M354 241.1L245 241.1L302 319.9Z" fill="#212b3f" stroke="#212b3f"></path><path d="M176 357.9L193 439.6L280 435.6Z" fill="#253048" stroke="#253048"></path><path d="M280 435.6L211 489.3L290 509.3Z" fill="#212b3f" stroke="#212b3f"></path><path d="M507 233.1L437 160.4L456 236.1Z" fill="#364460" stroke="#364460"></path><path d="M522 600L547 527.3L465 514.3Z" fill="#4b5977" stroke="#4b5977"></path><path d="M465 514.3L547 527.3L549 417.6Z" fill="#364460" stroke="#364460"></path><path d="M549 417.6L639 317.9L553 340.9Z" fill="#4b5977" stroke="#4b5977"></path><path d="M437 160.4L336 154.4L354 241.1Z" fill="#4b5977" stroke="#4b5977"></path><path d="M176 357.9L280 435.6L302 319.9Z" fill="#1f283b" stroke="#1f283b"></path><path d="M245 241.1L176 357.9L302 319.9Z" fill="#253048" stroke="#253048"></path><path d="M193 439.6L211 489.3L280 435.6Z" fill="#293651" stroke="#293651"></path><path d="M660 439.6L639 317.9L549 417.6Z" fill="#232e44" stroke="#232e44"></path><path d="M553 340.9L629 264.1L507 233.1Z" fill="#3d4b68" stroke="#3d4b68"></path><path d="M507 233.1L562 179.4L437 160.4Z" fill="#232e44" stroke="#232e44"></path><path d="M547 527.3L615 481.3L549 417.6Z" fill="#44526f" stroke="#44526f"></path><path d="M629 264.1L562 179.4L507 233.1Z" fill="#232e44" stroke="#232e44"></path><path d="M639 317.9L629 264.1L553 340.9Z" fill="#3d4b68" stroke="#3d4b68"></path><path d="M336 600L475 600L368 502.3Z" fill="#3d4b68" stroke="#3d4b68"></path><path d="M547 527.3L656 600L615 481.3Z" fill="#27334d" stroke="#27334d"></path><path d="M336 600L368 502.3L290 509.3Z" fill="#232e44" stroke="#232e44"></path><path d="M238 600L336 600L290 509.3Z" fill="#293651" stroke="#293651"></path><path d="M336 154.4L280 138.4L245 241.1Z" fill="#253048" stroke="#253048"></path><path d="M245 241.1L150 288.1L176 357.9Z" fill="#27334d" stroke="#27334d"></path><path d="M386 96.7L280 138.4L336 154.4Z" fill="#44526f" stroke="#44526f"></path><path d="M475 600L522 600L465 514.3Z" fill="#293651" stroke="#293651"></path><path d="M743 498.3L660 439.6L615 481.3Z" fill="#253048" stroke="#253048"></path><path d="M615 481.3L660 439.6L549 417.6Z" fill="#293651" stroke="#293651"></path><path d="M179 138.4L150 288.1L245 241.1Z" fill="#293651" stroke="#293651"></path><path d="M176 357.9L106 407.6L193 439.6Z" fill="#232e44" stroke="#232e44"></path><path d="M474 77.7L386 96.7L437 160.4Z" fill="#44526f" stroke="#44526f"></path><path d="M437 160.4L386 96.7L336 154.4Z" fill="#303d58" stroke="#303d58"></path><path d="M150 288.1L120 356.9L176 357.9Z" fill="#253048" stroke="#253048"></path><path d="M193 439.6L71 536.3L211 489.3Z" fill="#27334d" stroke="#27334d"></path><path d="M211 489.3L238 600L290 509.3Z" fill="#3d4b68" stroke="#3d4b68"></path><path d="M183 600L238 600L211 489.3Z" fill="#44526f" stroke="#44526f"></path><path d="M697 404.6L693 318.9L639 317.9Z" fill="#303d58" stroke="#303d58"></path><path d="M639 317.9L696 266.1L629 264.1Z" fill="#303d58" stroke="#303d58"></path><path d="M629 264.1L640 155.4L562 179.4Z" fill="#293651" stroke="#293651"></path><path d="M743 498.3L697 404.6L660 439.6Z" fill="#232e44" stroke="#232e44"></path><path d="M660 439.6L697 404.6L639 317.9Z" fill="#212b3f" stroke="#212b3f"></path><path d="M562 179.4L474 77.7L437 160.4Z" fill="#1f283b" stroke="#1f283b"></path><path d="M558 69.7L474 77.7L562 179.4Z" fill="#1f283b" stroke="#1f283b"></path><path d="M120 356.9L106 407.6L176 357.9Z" fill="#27334d" stroke="#27334d"></path><path d="M778 262.1L696 266.1L693 318.9Z" fill="#364460" stroke="#364460"></path><path d="M693 318.9L696 266.1L639 317.9Z" fill="#364460" stroke="#364460"></path><path d="M386 96.7L256 93.7L280 138.4Z" fill="#4b5977" stroke="#4b5977"></path><path d="M280 138.4L179 138.4L245 241.1Z" fill="#3d4b68" stroke="#3d4b68"></path><path d="M193 69.7L256 93.7L287 0Z" fill="#364460" stroke="#364460"></path><path d="M696 266.1L640 155.4L629 264.1Z" fill="#3d4b68" stroke="#3d4b68"></path><path d="M150 288.1L97 286.1L120 356.9Z" fill="#27334d" stroke="#27334d"></path><path d="M120 356.9L0 362.9L106 407.6Z" fill="#293651" stroke="#293651"></path><path d="M73 171.4L97 286.1L150 288.1Z" fill="#232e44" stroke="#232e44"></path><path d="M256 93.7L179 138.4L280 138.4Z" fill="#253048" stroke="#253048"></path><path d="M71 536.3L183 600L211 489.3Z" fill="#27334d" stroke="#27334d"></path><path d="M640 155.4L558 69.7L562 179.4Z" fill="#27334d" stroke="#27334d"></path><path d="M287 0L256 93.7L386 96.7Z" fill="#253048" stroke="#253048"></path><path d="M522 600L656 600L547 527.3Z" fill="#4b5977" stroke="#4b5977"></path><path d="M656 600L743 498.3L615 481.3Z" fill="#4b5977" stroke="#4b5977"></path><path d="M812 331.9L778 262.1L693 318.9Z" fill="#232e44" stroke="#232e44"></path><path d="M377 0L386 96.7L474 77.7Z" fill="#293651" stroke="#293651"></path><path d="M256 93.7L193 69.7L179 138.4Z" fill="#232e44" stroke="#232e44"></path><path d="M179 138.4L73 171.4L150 288.1Z" fill="#364460" stroke="#364460"></path><path d="M475 0L377 0L474 77.7Z" fill="#364460" stroke="#364460"></path><path d="M533 0L475 0L474 77.7Z" fill="#3d4b68" stroke="#3d4b68"></path><path d="M0 452.6L71 536.3L106 407.6Z" fill="#212b3f" stroke="#212b3f"></path><path d="M106 407.6L71 536.3L193 439.6Z" fill="#212b3f" stroke="#212b3f"></path><path d="M71 536.3L104 600L183 600Z" fill="#303d58" stroke="#303d58"></path><path d="M377 0L287 0L386 96.7Z" fill="#212b3f" stroke="#212b3f"></path><path d="M80 96.7L73 171.4L179 138.4Z" fill="#3d4b68" stroke="#3d4b68"></path><path d="M97 286.1L0 362.9L120 356.9Z" fill="#293651" stroke="#293651"></path><path d="M643 0L533 0L558 69.7Z" fill="#303d58" stroke="#303d58"></path><path d="M558 69.7L533 0L474 77.7Z" fill="#3d4b68" stroke="#3d4b68"></path><path d="M812 331.9L693 318.9L697 404.6Z" fill="#44526f" stroke="#44526f"></path><path d="M696 266.1L736 141.4L640 155.4Z" fill="#253048" stroke="#253048"></path><path d="M640 155.4L653 67.7L558 69.7Z" fill="#1f283b" stroke="#1f283b"></path><path d="M736 141.4L653 67.7L640 155.4Z" fill="#253048" stroke="#253048"></path><path d="M656 600L713 600L743 498.3Z" fill="#212b3f" stroke="#212b3f"></path><path d="M778 262.1L736 141.4L696 266.1Z" fill="#212b3f" stroke="#212b3f"></path><path d="M0 246.1L0 362.9L97 286.1Z" fill="#303d58" stroke="#303d58"></path><path d="M838 456.6L812 331.9L697 404.6Z" fill="#253048" stroke="#253048"></path><path d="M784 64.7L746 67.7L736 141.4Z" fill="#3d4b68" stroke="#3d4b68"></path><path d="M838 456.6L697 404.6L743 498.3Z" fill="#212b3f" stroke="#212b3f"></path><path d="M713 600L784 529.3L743 498.3Z" fill="#253048" stroke="#253048"></path><path d="M0 362.9L0 452.6L106 407.6Z" fill="#364460" stroke="#364460"></path><path d="M71 536.3L0 600L104 600Z" fill="#4b5977" stroke="#4b5977"></path><path d="M89 0L80 96.7L193 69.7Z" fill="#364460" stroke="#364460"></path><path d="M193 69.7L80 96.7L179 138.4Z" fill="#44526f" stroke="#44526f"></path><path d="M73 171.4L0 246.1L97 286.1Z" fill="#293651" stroke="#293651"></path><path d="M0 150.4L0 246.1L73 171.4Z" fill="#212b3f" stroke="#212b3f"></path><path d="M287 0L183 0L193 69.7Z" fill="#3d4b68" stroke="#3d4b68"></path><path d="M750 0L643 0L653 67.7Z" fill="#4b5977" stroke="#4b5977"></path><path d="M653 67.7L643 0L558 69.7Z" fill="#253048" stroke="#253048"></path><path d="M0 452.6L0 527.3L71 536.3Z" fill="#232e44" stroke="#232e44"></path><path d="M784 529.3L838 456.6L743 498.3Z" fill="#232e44" stroke="#232e44"></path><path d="M833 186.4L736 141.4L778 262.1Z" fill="#1f283b" stroke="#1f283b"></path><path d="M736 141.4L746 67.7L653 67.7Z" fill="#293651" stroke="#293651"></path><path d="M713 600L795 600L784 529.3Z" fill="#44526f" stroke="#44526f"></path><path d="M784 529.3L900 528.3L838 456.6Z" fill="#232e44" stroke="#232e44"></path><path d="M80 96.7L0 150.4L73 171.4Z" fill="#27334d" stroke="#27334d"></path><path d="M0 99.7L0 150.4L80 96.7Z" fill="#303d58" stroke="#303d58"></path><path d="M900 230.1L778 262.1L812 331.9Z" fill="#3d4b68" stroke="#3d4b68"></path><path d="M900 230.1L833 186.4L778 262.1Z" fill="#4b5977" stroke="#4b5977"></path><path d="M0 527.3L0 600L71 536.3Z" fill="#27334d" stroke="#27334d"></path><path d="M183 0L89 0L193 69.7Z" fill="#44526f" stroke="#44526f"></path><path d="M833 186.4L784 64.7L736 141.4Z" fill="#232e44" stroke="#232e44"></path><path d="M746 67.7L750 0L653 67.7Z" fill="#4b5977" stroke="#4b5977"></path><path d="M0 0L0 99.7L80 96.7Z" fill="#1f283b" stroke="#1f283b"></path><path d="M900 396.6L900 345.9L812 331.9Z" fill="#1f283b" stroke="#1f283b"></path><path d="M833 186.4L900 63.7L784 64.7Z" fill="#232e44" stroke="#232e44"></path><path d="M900 396.6L812 331.9L838 456.6Z" fill="#364460" stroke="#364460"></path><path d="M900 528.3L900 396.6L838 456.6Z" fill="#44526f" stroke="#44526f"></path><path d="M784 64.7L750 0L746 67.7Z" fill="#3d4b68" stroke="#3d4b68"></path><path d="M900 345.9L900 230.1L812 331.9Z" fill="#293651" stroke="#293651"></path><path d="M784 64.7L786 0L750 0Z" fill="#212b3f" stroke="#212b3f"></path><path d="M900 230.1L900 201.4L833 186.4Z" fill="#293651" stroke="#293651"></path><path d="M795 600L900 528.3L784 529.3Z" fill="#1f283b" stroke="#1f283b"></path><path d="M900 63.7L786 0L784 64.7Z" fill="#4b5977" stroke="#4b5977"></path><path d="M89 0L0 0L80 96.7Z" fill="#232e44" stroke="#232e44"></path><path d="M795 600L900 600L900 528.3Z" fill="#3d4b68" stroke="#3d4b68"></path><path d="M900 201.4L900 63.7L833 186.4Z" fill="#3d4b68" stroke="#3d4b68"></path><path d="M900 63.7L900 0L786 0Z" fill="#253048" stroke="#253048"></path></g></svg>