<svg id="visual" viewBox="0 0 675 900" width="675" height="900" xmlns="http://www.w3.org/2000/svg" xmlns:xlink="http://www.w3.org/1999/xlink" version="1.1"><g transform="translate(343.3180501845709 487.0525729446954)"><path d="M138.2 -217.7C193.8 -179.3 263.8 -165.9 287.2 -127.4C310.7 -89 287.5 -25.5 266.7 30.2C246 85.8 227.7 133.6 200.7 185.3C173.7 237 138 292.7 95.6 287.7C53.3 282.8 4.4 217.3 -62.8 202.7C-130 188.1 -215.4 224.4 -246.4 204.6C-277.4 184.8 -254 109 -261.9 39C-269.9 -30.9 -309.1 -95 -308.7 -159.7C-308.3 -224.4 -268.2 -289.6 -210.1 -327C-152.1 -364.3 -76 -373.6 -17.4 -346.6C41.3 -319.5 82.5 -256.1 138.2 -217.7" fill="#17ffb2"></path></g></svg>