<svg id="visual" viewBox="0 0 900 600" width="900" height="600" xmlns="http://www.w3.org/2000/svg" xmlns:xlink="http://www.w3.org/1999/xlink" version="1.1"><path d="M0 31L30 31C60 31 120 31 180 30C240 29 300 27 360 27C420 27 480 29 540 29C600 29 660 27 720 27C780 27 840 29 870 30L900 31L900 0L870 0C840 0 780 0 720 0C660 0 600 0 540 0C480 0 420 0 360 0C300 0 240 0 180 0C120 0 60 0 30 0L0 0Z" fill="#0bbd83"></path><path d="M0 103L30 101C60 99 120 95 180 89C240 83 300 75 360 72C420 69 480 71 540 72C600 73 660 73 720 76C780 79 840 85 870 88L900 91L900 29L870 28C840 27 780 25 720 25C660 25 600 27 540 27C480 27 420 25 360 25C300 25 240 27 180 28C120 29 60 29 30 29L0 29Z" fill="#11de9a"></path><path d="M0 133L30 131C60 129 120 125 180 120C240 115 300 109 360 105C420 101 480 99 540 99C600 99 660 101 720 106C780 111 840 119 870 123L900 127L900 89L870 86C840 83 780 77 720 74C660 71 600 71 540 70C480 69 420 67 360 70C300 73 240 81 180 87C120 93 60 97 30 99L0 101Z" fill="#17ffb2"></path><path d="M0 157L30 157C60 157 120 157 180 154C240 151 300 145 360 140C420 135 480 131 540 132C600 133 660 139 720 146C780 153 840 161 870 165L900 169L900 125L870 121C840 117 780 109 720 104C660 99 600 97 540 97C480 97 420 99 360 103C300 107 240 113 180 118C120 123 60 127 30 129L0 131Z" fill="#58ffc1"></path><path d="M0 187L30 186C60 185 120 183 180 178C240 173 300 165 360 161C420 157 480 157 540 159C600 161 660 165 720 170C780 175 840 181 870 184L900 187L900 167L870 163C840 159 780 151 720 144C660 137 600 131 540 130C480 129 420 133 360 138C300 143 240 149 180 152C120 155 60 155 30 155L0 155Z" fill="#7dffcf"></path><path d="M0 211L30 209C60 207 120 203 180 200C240 197 300 195 360 193C420 191 480 189 540 190C600 191 660 195 720 199C780 203 840 207 870 209L900 211L900 185L870 182C840 179 780 173 720 168C660 163 600 159 540 157C480 155 420 155 360 159C300 163 240 171 180 176C120 181 60 183 30 184L0 185Z" fill="#7dffcf"></path><path d="M0 283L30 282C60 281 120 279 180 273C240 267 300 257 360 252C420 247 480 247 540 253C600 259 660 271 720 276C780 281 840 279 870 278L900 277L900 209L870 207C840 205 780 201 720 197C660 193 600 189 540 188C480 187 420 189 360 191C300 193 240 195 180 198C120 201 60 205 30 207L0 209Z" fill="#7dffcf"></path><path d="M0 403L30 402C60 401 120 399 180 395C240 391 300 385 360 378C420 371 480 363 540 367C600 371 660 387 720 398C780 409 840 415 870 418L900 421L900 275L870 276C840 277 780 279 720 274C660 269 600 257 540 251C480 245 420 245 360 250C300 255 240 265 180 271C120 277 60 279 30 280L0 281Z" fill="#58ffc1"></path><path d="M0 499L30 501C60 503 120 507 180 510C240 513 300 515 360 515C420 515 480 513 540 515C600 517 660 523 720 523C780 523 840 517 870 514L900 511L900 419L870 416C840 413 780 407 720 396C660 385 600 369 540 365C480 361 420 369 360 376C300 383 240 389 180 393C120 397 60 399 30 400L0 401Z" fill="#17ffb2"></path><path d="M0 547L30 548C60 549 120 551 180 554C240 557 300 561 360 563C420 565 480 565 540 564C600 563 660 561 720 560C780 559 840 559 870 559L900 559L900 509L870 512C840 515 780 521 720 521C660 521 600 515 540 513C480 511 420 513 360 513C300 513 240 511 180 508C120 505 60 501 30 499L0 497Z" fill="#11de9a"></path><path d="M0 601L30 601C60 601 120 601 180 601C240 601 300 601 360 601C420 601 480 601 540 601C600 601 660 601 720 601C780 601 840 601 870 601L900 601L900 557L870 557C840 557 780 557 720 558C660 559 600 561 540 562C480 563 420 563 360 561C300 559 240 555 180 552C120 549 60 547 30 546L0 545Z" fill="#0bbd83"></path></svg>